# xmcd
#
# Track frame offsets:
#	150
#	20128
#	37640
#	65908
#	83441
#	104950
#	123277
#	155362
#	167747
#	183298
#	201293
#
# Disc length: 2858 seconds
#
# Revision: 0
# Processed by: cddbd v1.5.2PL0 Copyright (c) Steve Scherf et al.
# Submitted via: audiograbber 1.83.01
#
DISCID=8f0b280b
DTITLE=Die Neffen von Tante Eleonor - Tag für Tag
DYEAR=2006
DGENRE=A Cappella
TTITLE0=Tante Eleonor
TTITLE1=Gute Menschen 2006
TTITLE2=Superstar
TTITLE3=Real
TTITLE4=Traumgirl
TTITLE5=Ich wünsche mir das Leben
TTITLE6=Sie
TTITLE7=Tag für Tag
TTITLE8=Zeitmaschine
TTITLE9=Song von den Neffen
TTITLE10=Die Leit san onders wordn
EXTD=
EXTT0=
EXTT1=
EXTT2=
EXTT3=
EXTT4=
EXTT5=
EXTT6=
EXTT7=
EXTT8=
EXTT9=
EXTT10=
PLAYORDER=
